<?xml version="1.0" standalone="no"?> <!DOCTYPE svg PUBLIC "-//W3C//DTD SVG 1.0//EN" "http://www.w3.org/TR/2001/REC-SVG-20010904/DTD/svg10.dtd" > <svg xmlns="http://www.w3.org/2000/svg" width="100%" height="100%">
<defs >
<font id="titilliummaps26l003" horiz-adv-x="432" ><font-face
    font-family="TitilliumMaps26L"
    units-per-em="1000"
    panose-1="0 0 0 0 0 0 0 0 0 0"
    ascent="945"
    descent="-239"
    alphabetic="0" />
<missing-glyph horiz-adv-x="235" />
<glyph unicode=" " glyph-name="space" horiz-adv-x="235" />
<glyph unicode="!" glyph-name="exclam" horiz-adv-x="329" d="M133 0V101H199V0H133ZM135 225L134 699H197L196 225H135Z" />
<glyph unicode="&quot;" glyph-name="quotedbl" horiz-adv-x="299" d="M258 462H202L200 697H260L258 462ZM103 462H46L45 697H105L103 462Z" />
<glyph unicode="#" glyph-name="numbersign" horiz-adv-x="530" d="M517 184H403V0H347V184H180V0H124V184H10V236H124V432H10V484H124V667H180V484H347V667H403V484H517V432H403V236H517V184ZM347 236V432H180V236H347Z" />
<glyph unicode="$" glyph-name="dollar" horiz-adv-x="530" d="M183 -113L199 -4L65 9L70 66Q141 57 208 52L248 316Q145 338 102 374T58 500Q58 593 114 632T278 671Q294 671 302 670L321 790H361L342 668L474 655L471 599Q396 607 334 611L297 367Q354 355 386
345T445 315T482 266T493 190Q493 86 440 39T280 -8Q274 -8 261 -8T240 -7L223 -120L183 -113ZM429 189Q429 248 400 269T288 308L248 49H279Q354 49 391 82T429 189ZM122 501Q122 441 151 417T257 376L294 614H278Q200 614 161 589T122 501Z" />
<glyph unicode="%" glyph-name="percent" horiz-adv-x="530" d="M164 658T133 658T89 636T76 566Q76 469 133 469Q164 469 176 492T189 565Q189 613 177 635ZM164 6L333 706L380 694L210 -5L164 6ZM25 566Q25 702 133 702Q240 702 240 565Q240 495 212 460T133
425Q82 425 54 460T25 566ZM307 141Q307 277 414 277T521 140Q521 70 493 35T414 0T336 35T307 141ZM357 141Q357 44 414 44Q445 44 457 67T470 140Q470 188 458 210T414 233Q357 233 357 141Z" />
<glyph unicode="&amp;" glyph-name="ampersand" horiz-adv-x="700" d="M323 698Q405 698 447 658T489 546Q489 476 453 435T331 359L492 199Q512 259 522 338L580 337Q566 229 538 159L668 33L630 -9L509 108Q469 45 416 18T284 -10Q51 -10 51 208Q51 352 209
407Q157 466 157 550Q157 617 203 657T323 698ZM286 46Q406 46 464 147L248 365Q112 323 112 209Q112 46 286 46ZM217 545Q217 472 262 428L293 397Q369 427 398 457T428 543Q428 644 323 644Q273 644 245 617T217 545Z" />
<glyph unicode="&apos;" glyph-name="quotesingle" horiz-adv-x="100" d="M19 477L18 697H78L76 477H19Z" />
<glyph unicode="(" glyph-name="parenleft" horiz-adv-x="260" d="M140 750H203Q192 721 177 673T135 505T108 301Q108 218 132 112T180 -60L203 -125H140Q129 -100 113 -57T70 99T43 301T67 502T116 682L140 750Z" />
<glyph unicode=")" glyph-name="parenright" horiz-adv-x="260" d="M104 -120H41Q52 -91 67 -43T109 125T136 329Q136 412 112 518T64 690L41 755H104Q115 730 131 687T174 531T201 329T177 128T128 -52L104 -120Z" />
<glyph unicode="*" glyph-name="asterisk" horiz-adv-x="530" d="M443 509H304L347 377L300 363L257 496L143 413L115 451L229 534L116 617L145 657L258 574L302 706L350 691L306 559H443V509Z" />
<glyph unicode="+" glyph-name="plus" horiz-adv-x="530" d="M50 265V325H233V509H297V325H481V265H297V80H233V265H50Z" />
<glyph unicode="," glyph-name="comma" horiz-adv-x="170" d="M34 -123L78 99H144L91 -123H34Z" />
<glyph unicode="-" glyph-name="hyphen" horiz-adv-x="440" d="M70 242V299H370V242H70Z" />
<glyph unicode="." glyph-name="period" horiz-adv-x="248" d="M85 0V101H151V0H85Z" />
<glyph unicode="/" glyph-name="slash" horiz-adv-x="530" d="M96 14L374 706L431 685L152 -7L96 14Z" />
<glyph unicode="0" glyph-name="zero" horiz-adv-x="530" d="M264 670Q321 670 362 654T434 599T482 490T498 317Q498 136 438 63T265 -10Q210 -10 170 5T97 57T48 158T31 318Q31 420 47 490T96 599T168 654T264 670ZM264 613Q177 613 137 550T96 317Q96 163 138
105T265 47T391 105T433 318Q433 432 414 498T359 588T264 613Z" />
<glyph unicode="1" glyph-name="one" horiz-adv-x="530" d="M78 522L281 660H340V0H279V591L107 473L78 522Z" />
<glyph unicode="2" glyph-name="two" horiz-adv-x="530" d="M475 0H53V56L263 270Q332 339 362 386T393 491Q393 555 355 583T243 612Q213 612 168 606T93 594L63 589L57 644Q167 670 253 670Q457 670 457 496Q457 424 425 371T328 252L134 58H475V0Z" />
<glyph unicode="3" glyph-name="three" horiz-adv-x="530" d="M63 647Q170 670 257 670Q363 670 411 629T460 501Q460 475 453 452T437 415T414 388T391 370T370 358L358 352Q398 339 421 324T460 274T477 186Q477 -10 268 -10Q224 -10 171 -4T86 8L54 13L62 68Q74
66 95 63T169 54T263 48Q413 50 413 183Q413 254 376 283T271 316H141V372H270Q315 372 355 406T396 496Q396 558 363 585T255 613Q216 613 170 608T96 597L70 592L63 647Z" />
<glyph unicode="4" glyph-name="four" horiz-adv-x="530" d="M350 -3V126H32V176L236 660H303L103 183H350V405H412V183H496V126H412V-3H350Z" />
<glyph unicode="5" glyph-name="five" horiz-adv-x="530" d="M83 660H456V602H139L122 371Q206 414 277 414Q373 414 428 368T484 219Q484 107 425 50T267 -8Q226 -8 173 -2T88 12L56 18L63 73Q180 49 265 49Q334 49 377 92T420 217Q420 357 272 357Q238 357 199
346T137 323L115 312L63 321L83 660Z" />
<glyph unicode="6" glyph-name="six" horiz-adv-x="530" d="M463 651L457 596Q367 613 289 613Q105 613 104 366Q203 410 276 410Q379 410 435 361T492 211Q492 107 432 49T267 -10Q155 -10 98 79T40 334Q40 670 289 670Q322 670 365 665T436 656L463 651ZM272
354Q238 354 196 344T128 324L103 313Q105 191 145 119T267 47Q342 47 385 90T428 211Q428 283 387 318T272 354Z" />
<glyph unicode="7" glyph-name="seven" horiz-adv-x="530" d="M58 602V660H452V565L198 -11L139 8L388 571V602H58Z" />
<glyph unicode="8" glyph-name="eight" horiz-adv-x="530" d="M159 671T268 671T440 628T504 501Q504 439 475 405T382 346Q446 323 480 286T514 181Q514 -10 268 -10Q159 -10 92 32T25 170Q25 241 56 279T149 346Q91 372 64 406T36 502Q36 585 97 628ZM268 46Q354
46 401 77T448 183Q448 244 415 271T316 316H212Q152 300 122 268T91 177Q91 46 268 46ZM268 614Q185 614 144 587T102 496Q102 446 128 418T212 370H316Q377 387 407 416T437 495Q437 558 395 586T268 614Z" />
<glyph unicode="9" glyph-name="nine" horiz-adv-x="530" d="M68 11L76 65Q166 47 243 47Q429 47 432 290Q323 252 252 252Q154 252 98 303T42 455T104 612T264 670Q379 670 437 582T495 326Q495 145 430 68T243 -10Q210 -10 167 -5T96 6L68 11ZM257 308Q287 308
331 317T404 335L433 344Q431 472 390 543T264 614Q194 614 150 572T106 455Q106 382 145 345T257 308Z" />
<glyph unicode=":" glyph-name="colon" horiz-adv-x="163" d="M66 330V432H132V330H66ZM66 0V101H132V0H66Z" />
<glyph unicode=";" glyph-name="semicolon" horiz-adv-x="188" d="M29 -121L75 104H142L83 -121H29ZM70 330V432H136V330H70Z" />
<glyph unicode="&lt;" glyph-name="less" horiz-adv-x="530" d="M421 475L146 300L421 117V51L89 267V329L421 539V475Z" />
<glyph unicode="=" glyph-name="equal" horiz-adv-x="530" d="M60 340V400H470V340H60ZM60 162V221H470V162H60Z" />
<glyph unicode="&gt;" glyph-name="greater" horiz-adv-x="530" d="M382 300L107 475V539L439 329V267L107 51V117L382 300Z" />
<glyph unicode="?" glyph-name="question" horiz-adv-x="386" d="M375 542Q375 497 347 451T285 374T223 305T194 233V195H133Q131 236 131 241Q131 273 149 306T194 368T247 423T292 481T311 538Q311 600 280 625T174 650Q153 650 116 644T51 632L24 627L16 682Q122
710 178 710Q280 710 327 672T375 542ZM130 1V100H196V1H130Z" />
<glyph unicode="@" glyph-name="at" horiz-adv-x="985" d="M930 305V288Q930 208 922 153T900 66T864 17T817 -5T759 -10Q711 -10 686 1T647 48Q539 -9 466 -9Q439 -9 418 -5T372 14T331 55T303 129T292 243Q292 378 337 443T497 509Q519 509 550 503T600 490L620
483V500H679V300Q679 175 686 124T707 59T759 45Q789 45 805 51T838 80T861 153T868 288V306Q868 496 784 580T504 665Q304 665 210 572T116 261Q116 34 206 -55T504 -145L647 -135L650 -192Q552 -202 504 -202Q388 -202 308 -180T170 -106T83 36T55 261Q55 504
167 612T504 721Q728 721 829 620T930 305ZM468 48Q537 48 630 97Q620 150 620 285V430Q554 453 505 453Q416 453 384 403T352 240Q352 179 362 139T391 80T427 55T468 48Z" />
<glyph unicode="A" glyph-name="A" horiz-adv-x="604" d="M36 0L236 697H371L569 0H507L448 191H154L98 0H36ZM281 642L169 248H435L323 642H281Z" />
<glyph unicode="B" glyph-name="B" horiz-adv-x="621" d="M100 697H336Q434 697 487 653T540 526Q540 398 449 359Q564 322 564 196Q564 0 351 0H100V697ZM343 327H161V56H349Q419 56 460 91T501 198Q501 238 484 265T440 305T390 322T343 327ZM334 641H161V382H343Q410
382 443 419T477 520Q477 641 334 641Z" />
<glyph unicode="C" glyph-name="C" horiz-adv-x="535" d="M485 66L488 10Q382 -10 305 -10Q230 -10 181 14T105 87T68 197T58 346Q58 435 68 496T104 608T180 682T305 707Q345 707 391 702T463 692L489 687L485 631Q382 649 310 649Q250 649 212 629T154 566T129
474T122 346Q122 285 126 244T141 163T173 100T228 63T311 49Q339 49 382 53T456 62L485 66Z" />
<glyph unicode="D" glyph-name="D" horiz-adv-x="646" d="M343 0H100V697H343Q411 697 460 671T537 596T576 489T589 359Q589 286 577 225T538 112T461 30T343 0ZM525 359Q525 415 517 462T488 551T431 616T343 640H161V57H343Q394 57 431 84T488 156T516 252T525 359Z" />
<glyph unicode="E" glyph-name="E" horiz-adv-x="567" d="M100 0V697H506V640H161V383H446V327H161V57H506V0H100Z" />
<glyph unicode="F" glyph-name="F" horiz-adv-x="557" d="M100 0V697H507V640H161V351H447V295H161V0H100Z" />
<glyph unicode="G" glyph-name="G" horiz-adv-x="611" d="M354 299V354H539V13Q400 -10 321 -10Q175 -10 118 80T60 347Q60 434 71 496T111 607T192 682T320 707Q365 707 420 701T507 688L539 682L536 626Q414 649 325 649Q275 649 240 635T182 597T146 533T129
451T124 347Q124 272 132 221T161 129T223 68T324 48Q351 48 388 52T451 60T478 64V299H354Z" />
<glyph unicode="H" glyph-name="H" horiz-adv-x="688" d="M527 0V322H161V0H100V697H161V380H527V697H588V0H527Z" />
<glyph unicode="I" glyph-name="I" horiz-adv-x="239" d="M89 0V697H150V0H89Z" />
<glyph unicode="J" glyph-name="J" horiz-adv-x="306" d="M216 698L217 107Q217 48 209 14T179 -40T125 -66T39 -72V-16Q110 -16 132 8T155 115V698H216Z" />
<glyph unicode="K" glyph-name="K" horiz-adv-x="595" d="M474 0L272 315L161 313V0H100V697H161V370L270 372L463 697H535L325 348L548 0H474Z" />
<glyph unicode="L" glyph-name="L" horiz-adv-x="519" d="M469 0H100V697H161V58H469V0Z" />
<glyph unicode="M" glyph-name="M" horiz-adv-x="850" d="M100 0V697H213L425 87L639 697H750V0H689V631H675L460 23H388L175 631H161V0H100Z" />
<glyph unicode="N" glyph-name="N" horiz-adv-x="690" d="M100 0V697H220L506 61H529V697H591V0H472L183 636H161V0H100Z" />
<glyph unicode="O" glyph-name="O" horiz-adv-x="653" d="M326 47Q441 47 485 115T529 345Q529 502 483 576T326 650T170 577T124 345Q124 186 168 117T326 47ZM326 -10Q181 -10 121 75T60 345T121 618T326 707Q470 707 531 618T593 345Q593 157 533 74T326 -10Z" />
<glyph unicode="P" glyph-name="P" horiz-adv-x="609" d="M343 242H161V0H100V697H343Q559 697 559 479Q559 369 505 306T343 242ZM161 299H343Q420 299 458 348T496 479Q496 640 343 640H161V299Z" />
<glyph unicode="Q" glyph-name="Q" horiz-adv-x="653" d="M501 -143L420 1Q378 -10 326 -10Q248 -10 195 13T113 84T72 194T60 345Q60 433 72 496T113 608T196 682T326 707Q476 707 534 617T593 345Q593 217 568 138T480 23L558 -115L501 -143ZM326 47Q389 47
429 65T491 123T521 214T529 345Q529 420 521 472T491 567T428 629T326 650Q208 650 166 576T124 345Q124 268 132 217T161 126T223 66T326 47Z" />
<glyph unicode="R" glyph-name="R" horiz-adv-x="625" d="M364 275L340 274H161V0H100V697H343Q559 697 559 490Q559 322 426 287L568 0H500L364 275ZM496 417T496 490T458 601T343 640H161V330H344Q424 330 460 373Z" />
<glyph unicode="S" glyph-name="S" horiz-adv-x="534" d="M470 690L466 635Q332 651 274 651Q198 651 158 620T118 528Q118 460 155 432T290 384Q397 361 441 323T486 202Q486 93 434 43T271 -8Q235 -8 183 -4T96 5L62 9L67 65Q199 49 268 49Q424 49 424 198Q424
256 389 283T264 329Q150 353 103 393T56 527Q56 617 112 663T272 709Q308 709 357 705T438 695L470 690Z" />
<glyph unicode="T" glyph-name="T" horiz-adv-x="495" d="M9 639V697H485V639H279V0H218V639H9Z" />
<glyph unicode="U" glyph-name="U" horiz-adv-x="643" d="M147 204Q147 49 318 49Q496 49 496 204V697H557V204Q557 -9 318 -9Q86 -9 86 204V697H147V204Z" />
<glyph unicode="V" glyph-name="V" horiz-adv-x="587" d="M488 697H551L369 0H221L36 697H99L269 56H321L488 697Z" />
<glyph unicode="W" glyph-name="W" horiz-adv-x="889" d="M45 697H107L239 56H271L410 687H479L621 56H654L782 697H844L702 0H576L444 606L317 0H191L45 697Z" />
<glyph unicode="X" glyph-name="X" horiz-adv-x="581" d="M109 697L291 391L472 697H542L333 346L542 0H472L292 302L109 0H39L251 346L39 697H109Z" />
<glyph unicode="Y" glyph-name="Y" horiz-adv-x="548" d="M305 299V0H244V299L26 697H95L275 366L452 697H521L305 299Z" />
<glyph unicode="Z" glyph-name="Z" horiz-adv-x="570" d="M65 640V697H505V613L136 77V57H505V-1H65V83L434 618V640H65Z" />
<glyph unicode="[" glyph-name="bracketleft" horiz-adv-x="300" d="M243 749V692H104V-66H243V-123H43V749H243Z" />
<glyph unicode="\" glyph-name="backslash" horiz-adv-x="529" d="M444 10L383 0L80 691L142 701L444 10Z" />
<glyph unicode="]" glyph-name="bracketright" horiz-adv-x="300" d="M44 692V749H244V-123H44V-66H183V692H44Z" />
<glyph unicode="^" glyph-name="asciicircum" horiz-adv-x="530" d="M407 328L261 600L121 328H56L229 660H292L473 328H407Z" />
<glyph unicode="_" glyph-name="underscore" horiz-adv-x="530" d="M27 -84H503V-140H27V-84Z" />
<glyph unicode="`" glyph-name="grave" horiz-adv-x="545" d="M158 743L366 648L345 599L135 688L158 743Z" />
<glyph unicode="a" glyph-name="a" horiz-adv-x="520" d="M426 349V88Q440 49 492 43L488 -9Q415 -9 378 31Q293 -10 198 -10Q137 -10 99 31T60 141Q60 274 209 289L366 304V350Q366 404 343 428T272 453Q237 453 191 450T116 442L88 439L85 491Q196 509 274 509T389
470T426 349ZM366 255L216 242Q121 233 121 142Q121 99 144 71T204 42Q242 42 282 50T344 68L366 76V255Z" />
<glyph unicode="b" glyph-name="b" horiz-adv-x="540" d="M308 509Q404 509 444 444T485 259Q485 126 434 58T253 -10Q225 -10 187 -8T125 -2L101 0V722H161V476Q230 509 308 509ZM252 43Q305 43 340 59T393 106T416 173T423 258Q423 351 397 403T304 455Q269
455 234 448T180 432L161 425V48Q222 43 252 43Z" />
<glyph unicode="c" glyph-name="c" horiz-adv-x="437" d="M268 509Q289 509 319 507T370 501L389 498L386 445Q315 455 277 455Q192 455 158 409T124 259Q124 144 155 95T278 45L388 53L390 1Q314 -10 267 -10Q150 -10 106 52T62 259Q62 390 110 449T268 509Z" />
<glyph unicode="d" glyph-name="d" horiz-adv-x="540" d="M446 722V0H386V32Q310 -10 237 -10Q62 -10 62 246Q62 378 112 443T270 509Q314 509 386 497V722H446ZM242 44Q271 44 307 54T364 74L386 84V446Q323 456 273 456Q193 456 158 403T123 244Q123 44 242 44Z" />
<glyph unicode="e" glyph-name="e" horiz-adv-x="507" d="M254 44Q286 44 330 46T404 50L432 53L434 4Q331 -10 251 -10Q148 -10 103 56T58 248Q58 380 111 444T260 509Q452 509 452 273L450 225H119Q121 44 254 44ZM119 274H392Q392 371 360 414T260 457Q194
457 157 413T119 274Z" />
<glyph unicode="f" glyph-name="f" horiz-adv-x="332" d="M155 447V0H96V447H32V500H96V551Q96 650 126 691T227 732L316 726V675Q265 678 236 678Q191 678 173 650T155 550V500H306V447H155Z" />
<glyph unicode="g" glyph-name="g" horiz-adv-x="512" d="M259 -239Q155 -239 105 -203T54 -83Q54 -43 74 -15T136 44Q110 60 110 111Q110 119 118 139T134 175L143 191Q61 232 61 340Q61 419 110 464T237 510Q259 510 281 507T316 500L327 497L480 500V447H379Q418
410 418 340Q418 173 234 173Q211 173 187 177Q168 128 168 115Q168 92 175 83T205 70T287 66Q390 66 433 38T476 -72Q476 -155 419 -197T259 -239ZM283 14L177 18Q142 -11 128 -30T114 -79Q114 -136 150 -161T260 -186Q335 -186 374 -158T414 -74T385 -3T283 14ZM234
224Q357 224 357 340Q357 458 236 458Q181 458 151 427T121 340Q121 224 234 224Z" />
<glyph unicode="h" glyph-name="h" horiz-adv-x="565" d="M153 0H94V722H153V474Q237 509 306 509Q404 509 438 454T472 260V0H412V259Q412 368 390 411T299 455Q269 455 233 447T174 430L153 421V0Z" />
<glyph unicode="i" glyph-name="i" horiz-adv-x="228" d="M84 0V500H144V0H84ZM84 623V698H144V623H84Z" />
<glyph unicode="j" glyph-name="j" horiz-adv-x="242" d="M98 6V500H158V5Q158 -85 128 -129T2 -226L-24 -175Q53 -130 75 -97T98 6ZM98 622V697H158V622H98Z" />
<glyph unicode="k" glyph-name="k" horiz-adv-x="492" d="M161 0H101V722H161V296L237 298L395 500H464L290 271L465 0H397L238 240L161 237V0Z" />
<glyph unicode="l" glyph-name="l" horiz-adv-x="236" d="M88 0V722H148V0H88Z" />
<glyph unicode="m" glyph-name="m" horiz-adv-x="868" d="M168 0H109V500H168V464Q245 509 312 509Q360 509 388 497T438 459Q543 509 616 509Q714 509 748 454T782 260V0H722V257Q722 368 701 411T609 455Q579 455 542 445T482 423L460 412Q479 362 479 260V0H419V258Q419
366 395 410T305 455Q275 455 241 445T187 423L168 412V0Z" />
<glyph unicode="n" glyph-name="n" horiz-adv-x="570" d="M161 0H101V500H161V464Q238 509 314 509Q412 509 446 454T480 260V0H420V259Q420 368 398 411T307 455Q274 455 238 445T181 424L161 413V0Z" />
<glyph unicode="o" glyph-name="o" horiz-adv-x="527" d="M265 509Q372 509 420 447T468 257Q468 122 424 56T265 -10Q149 -10 104 54T59 258Q59 388 105 448T265 509ZM265 43Q350 43 378 94T406 257Q406 359 373 407T265 456Q185 456 153 410T120 258Q120 143
149 93T265 43Z" />
<glyph unicode="p" glyph-name="p" horiz-adv-x="541" d="M101 -225V500H161V464Q230 509 310 509Q486 509 486 256Q486 118 436 54T272 -10Q208 -10 161 1V-225H101ZM304 455Q272 455 236 445T180 423L161 412V54Q220 43 269 43Q354 43 389 94T425 258Q425 352
394 403T304 455Z" />
<glyph unicode="q" glyph-name="q" horiz-adv-x="539" d="M250 -10Q149 -10 106 54T62 241Q62 379 114 444T288 509L446 500V-225H386V22Q325 -10 250 -10ZM289 456Q197 456 161 405T124 243Q124 146 153 95T252 44Q285 44 318 52T369 68L386 76V450Q321 456 289 456Z" />
<glyph unicode="r" glyph-name="r" horiz-adv-x="355" d="M92 0V500H152V429Q232 490 327 510V449Q287 441 244 422T176 388L152 374V0H92Z" />
<glyph unicode="s" glyph-name="s" horiz-adv-x="486" d="M406 493L404 441Q299 456 236 456Q123 456 123 370Q123 333 148 316T248 286Q349 270 386 242T423 145Q423 61 375 26T235 -10Q208 -10 166 -6T96 4L67 8L71 60Q179 43 230 43Q298 43 330 64T362 142Q362
185 337 201T230 231Q138 247 100 275T62 368Q62 442 111 475T233 509Q267 509 310 505T380 497L406 493Z" />
<glyph unicode="t" glyph-name="t" horiz-adv-x="366" d="M322 446H164V201Q164 110 179 77T243 44L327 49L331 -2Q273 -11 238 -11Q165 -11 135 29T104 170V446H31V499H104V657H164V499H322V446Z" />
<glyph unicode="u" glyph-name="u" horiz-adv-x="558" d="M404 500H464V0H404V35Q328 -10 259 -10Q162 -10 128 45T93 239V500H153V241Q153 128 175 86T266 44Q296 44 330 54T384 76L404 86V500Z" />
<glyph unicode="v" glyph-name="v" horiz-adv-x="481" d="M33 500H96L222 51H258L387 500H448L304 0H176L33 500Z" />
<glyph unicode="w" glyph-name="w" horiz-adv-x="758" d="M34 500H95L203 54H226L347 490H411L532 54H555L663 500H724L601 0H488L378 412L267 0H156L34 500Z" />
<glyph unicode="x" glyph-name="x" horiz-adv-x="459" d="M35 500H101L229 294L358 500H423L265 250L423 0H356L229 206L102 0H36L193 250L35 500Z" />
<glyph unicode="y" glyph-name="y" horiz-adv-x="481" d="M32 500H93L222 56H258L388 500H449L236 -225H175L243 0H176L32 500Z" />
<glyph unicode="z" glyph-name="z" horiz-adv-x="480" d="M59 446V500H420L421 446L130 54H421V0H61L59 54L351 446H59Z" />
<glyph unicode="{" glyph-name="braceleft" horiz-adv-x="298" d="M170 170Q170 152 167 112T163 53Q163 -8 189 -37T288 -70L286 -127Q187 -123 144 -82T100 49Q100 70 103 115T107 172Q107 217 85 243T6 285V337Q62 351 84 377T107 449Q107 462 104 509T100
577Q100 668 143 708T286 753L288 696Q215 692 189 664T163 574Q163 557 166 512T170 453Q170 390 148 360T70 312Q125 294 147 263T170 170Z" />
<glyph unicode="|" glyph-name="bar" horiz-adv-x="530" d="M229 -250V750H290V-250H229Z" />
<glyph unicode="}" glyph-name="braceright" horiz-adv-x="298" d="M120 453Q120 471 123 511T127 570Q127 631 101 660T2 693L4 750Q103 746 146 705T190 574Q190 553 187 508T183 451Q183 406 205 380T284 338V286Q228 272 206 246T183 174Q183 161 186 114T190
46Q190 -45 147 -85T4 -130L2 -73Q75 -69 101 -41T127 49Q127 66 124 111T120 170Q120 233 142 263T220 311Q165 329 143 360T120 453Z" />
<glyph unicode="~" glyph-name="asciitilde" horiz-adv-x="530" d="M457 374L464 315Q458 309 448 301T411 278T360 263Q329 263 261 289T172 315Q154 315 130 303T89 278L73 265L65 323Q71 329 82 338T121 361T174 376Q206 376 273 351T361 325Q378 325 402 337T442
362L457 374Z" />
</font>
</defs>
</svg>
